# Wavefront OBJ file automatically generated by Tiled2Unity

# Vertices (Count = 121)
v 0 -0.32 0
v -0.32 -0.32 0
v -0.32 0 0
v 0 0 0
v -0.64 -0.32 0
v -0.64 0 0
v -0.96 -0.32 0
v -0.96 0 0
v -1.28 -0.32 0
v -1.28 0 0
v -1.6 -0.32 0
v -1.6 0 0
v -1.92 -0.32 0
v -1.92 0 0
v -2.24 -0.32 0
v -2.24 0 0
v -2.56 -0.32 0
v -2.56 0 0
v -2.88 -0.32 0
v -2.88 0 0
v -3.2 -0.32 0
v -3.2 0 0
v 0 -0.64 0
v -0.32 -0.64 0
v -0.64 -0.64 0
v -0.96 -0.64 0
v -1.28 -0.64 0
v -1.6 -0.64 0
v -1.92 -0.64 0
v -2.24 -0.64 0
v -2.56 -0.64 0
v -2.88 -0.64 0
v -3.2 -0.64 0
v 0 -0.96 0
v -0.32 -0.96 0
v -0.64 -0.96 0
v -0.96 -0.96 0
v -1.28 -0.96 0
v -1.6 -0.96 0
v -1.92 -0.96 0
v -2.24 -0.96 0
v -2.56 -0.96 0
v -2.88 -0.96 0
v -3.2 -0.96 0
v 0 -1.28 0
v -0.32 -1.28 0
v -0.64 -1.28 0
v -0.96 -1.28 0
v -1.28 -1.28 0
v -1.6 -1.28 0
v -1.92 -1.28 0
v -2.24 -1.28 0
v -2.56 -1.28 0
v -2.88 -1.28 0
v -3.2 -1.28 0
v 0 -1.6 0
v -0.32 -1.6 0
v -0.64 -1.6 0
v -0.96 -1.6 0
v -1.28 -1.6 0
v -1.6 -1.6 0
v -1.92 -1.6 0
v -2.24 -1.6 0
v -2.56 -1.6 0
v -2.88 -1.6 0
v -3.2 -1.6 0
v 0 -1.92 0
v -0.32 -1.92 0
v -0.64 -1.92 0
v -0.96 -1.92 0
v -1.28 -1.92 0
v -1.6 -1.92 0
v -1.92 -1.92 0
v -2.24 -1.92 0
v -2.56 -1.92 0
v -2.88 -1.92 0
v -3.2 -1.92 0
v 0 -2.24 0
v -0.32 -2.24 0
v -0.64 -2.24 0
v -0.96 -2.24 0
v -1.28 -2.24 0
v -1.6 -2.24 0
v -1.92 -2.24 0
v -2.24 -2.24 0
v -2.56 -2.24 0
v -2.88 -2.24 0
v -3.2 -2.24 0
v 0 -2.56 0
v -0.32 -2.56 0
v -0.64 -2.56 0
v -0.96 -2.56 0
v -1.28 -2.56 0
v -1.6 -2.56 0
v -1.92 -2.56 0
v -2.24 -2.56 0
v -2.56 -2.56 0
v -2.88 -2.56 0
v -3.2 -2.56 0
v 0 -2.88 0
v -0.32 -2.88 0
v -0.64 -2.88 0
v -0.96 -2.88 0
v -1.28 -2.88 0
v -1.6 -2.88 0
v -1.92 -2.88 0
v -2.24 -2.88 0
v -2.56 -2.88 0
v -2.88 -2.88 0
v -3.2 -2.88 0
v 0 -3.2 0
v -0.32 -3.2 0
v -0.64 -3.2 0
v -0.96 -3.2 0
v -1.28 -3.2 0
v -1.6 -3.2 0
v -1.92 -3.2 0
v -2.24 -3.2 0
v -2.56 -3.2 0
v -2.88 -3.2 0
v -3.2 -3.2 0

# Texture cooridinates (Count = 44)
vt 0.1251221 0.0001220703
vt 0.1665446 0.0001220703
vt 0.1665446 0.06237793
vt 0.1251221 0.06237793
vt 0.6251221 0.2501221
vt 0.6665446 0.2501221
vt 0.6665446 0.3123779
vt 0.6251221 0.3123779
vt 0.1667887 0.0001220703
vt 0.2082113 0.0001220703
vt 0.2082113 0.06237793
vt 0.1667887 0.06237793
vt 0.8334554 0.2501221
vt 0.8748779 0.2501221
vt 0.8748779 0.3123779
vt 0.8334554 0.3123779
vt 0.8751221 0.2501221
vt 0.9165446 0.2501221
vt 0.9165446 0.3123779
vt 0.8751221 0.3123779
vt 0.7917888 0.5001221
vt 0.8332112 0.5001221
vt 0.8332112 0.5623779
vt 0.7917888 0.5623779
vt 0.7917888 0.2501221
vt 0.8332112 0.2501221
vt 0.8332112 0.3123779
vt 0.7917888 0.3123779
vt 0.9584554 0.3126221
vt 0.9998779 0.3126221
vt 0.9998779 0.3748779
vt 0.9584554 0.3748779
vt 0.8334554 0.3126221
vt 0.8748779 0.3126221
vt 0.8748779 0.3748779
vt 0.8334554 0.3748779
vt 0.9167888 0.3126221
vt 0.9582112 0.3126221
vt 0.9582112 0.3748779
vt 0.9167888 0.3748779
vt 0.0001220703 0.0001220703
vt 0.9998779 0.0001220703
vt 0.9998779 0.9998779
vt 0.0001220703 0.9998779

# Normal
vn 0 0 -1

# Groups (Count = 4)

g mesh_0001
f 1/1/1 2/2/1 3/3/1 4/4/1
f 2/1/1 5/2/1 6/3/1 3/4/1
f 5/1/1 7/2/1 8/3/1 6/4/1
f 7/1/1 9/2/1 10/3/1 8/4/1
f 9/1/1 11/2/1 12/3/1 10/4/1
f 11/1/1 13/2/1 14/3/1 12/4/1
f 13/1/1 15/2/1 16/3/1 14/4/1
f 15/1/1 17/2/1 18/3/1 16/4/1
f 17/1/1 19/2/1 20/3/1 18/4/1
f 19/1/1 21/2/1 22/3/1 20/4/1
f 23/1/1 24/2/1 2/3/1 1/4/1
f 24/1/1 25/2/1 5/3/1 2/4/1
f 25/1/1 26/2/1 7/3/1 5/4/1
f 26/1/1 27/2/1 9/3/1 7/4/1
f 27/1/1 28/2/1 11/3/1 9/4/1
f 28/1/1 29/2/1 13/3/1 11/4/1
f 29/1/1 30/2/1 15/3/1 13/4/1
f 30/1/1 31/2/1 17/3/1 15/4/1
f 31/1/1 32/2/1 19/3/1 17/4/1
f 32/1/1 33/2/1 21/3/1 19/4/1
f 34/1/1 35/2/1 24/3/1 23/4/1
f 35/1/1 36/2/1 25/3/1 24/4/1
f 36/1/1 37/2/1 26/3/1 25/4/1
f 37/1/1 38/2/1 27/3/1 26/4/1
f 38/1/1 39/2/1 28/3/1 27/4/1
f 39/1/1 40/2/1 29/3/1 28/4/1
f 40/1/1 41/2/1 30/3/1 29/4/1
f 41/1/1 42/2/1 31/3/1 30/4/1
f 42/1/1 43/2/1 32/3/1 31/4/1
f 43/1/1 44/2/1 33/3/1 32/4/1
f 45/1/1 46/2/1 35/3/1 34/4/1
f 46/1/1 47/2/1 36/3/1 35/4/1
f 47/1/1 48/2/1 37/3/1 36/4/1
f 48/1/1 49/2/1 38/3/1 37/4/1
f 49/1/1 50/2/1 39/3/1 38/4/1
f 50/1/1 51/2/1 40/3/1 39/4/1
f 51/1/1 52/2/1 41/3/1 40/4/1
f 52/1/1 53/2/1 42/3/1 41/4/1
f 53/1/1 54/2/1 43/3/1 42/4/1
f 54/1/1 55/2/1 44/3/1 43/4/1
f 56/1/1 57/2/1 46/3/1 45/4/1
f 57/1/1 58/2/1 47/3/1 46/4/1
f 58/1/1 59/2/1 48/3/1 47/4/1
f 59/1/1 60/2/1 49/3/1 48/4/1
f 60/1/1 61/2/1 50/3/1 49/4/1
f 61/1/1 62/2/1 51/3/1 50/4/1
f 62/1/1 63/2/1 52/3/1 51/4/1
f 63/1/1 64/2/1 53/3/1 52/4/1
f 64/1/1 65/2/1 54/3/1 53/4/1
f 65/1/1 66/2/1 55/3/1 54/4/1
f 67/1/1 68/2/1 57/3/1 56/4/1
f 68/1/1 69/2/1 58/3/1 57/4/1
f 69/1/1 70/2/1 59/3/1 58/4/1
f 70/1/1 71/2/1 60/3/1 59/4/1
f 71/1/1 72/2/1 61/3/1 60/4/1
f 72/1/1 73/2/1 62/3/1 61/4/1
f 73/1/1 74/2/1 63/3/1 62/4/1
f 74/1/1 75/2/1 64/3/1 63/4/1
f 75/1/1 76/2/1 65/3/1 64/4/1
f 76/1/1 77/2/1 66/3/1 65/4/1
f 78/1/1 79/2/1 68/3/1 67/4/1
f 79/1/1 80/2/1 69/3/1 68/4/1
f 80/1/1 81/2/1 70/3/1 69/4/1
f 81/1/1 82/2/1 71/3/1 70/4/1
f 82/1/1 83/2/1 72/3/1 71/4/1
f 83/1/1 84/2/1 73/3/1 72/4/1
f 84/1/1 85/2/1 74/3/1 73/4/1
f 85/1/1 86/2/1 75/3/1 74/4/1
f 86/1/1 87/2/1 76/3/1 75/4/1
f 87/1/1 88/2/1 77/3/1 76/4/1
f 89/1/1 90/2/1 79/3/1 78/4/1
f 90/1/1 91/2/1 80/3/1 79/4/1
f 91/1/1 92/2/1 81/3/1 80/4/1
f 92/1/1 93/2/1 82/3/1 81/4/1
f 93/1/1 94/2/1 83/3/1 82/4/1
f 94/1/1 95/2/1 84/3/1 83/4/1
f 95/1/1 96/2/1 85/3/1 84/4/1
f 96/1/1 97/2/1 86/3/1 85/4/1
f 97/1/1 98/2/1 87/3/1 86/4/1
f 98/1/1 99/2/1 88/3/1 87/4/1
f 100/1/1 101/2/1 90/3/1 89/4/1
f 101/1/1 102/2/1 91/3/1 90/4/1
f 102/1/1 103/2/1 92/3/1 91/4/1
f 103/1/1 104/2/1 93/3/1 92/4/1
f 104/1/1 105/2/1 94/3/1 93/4/1
f 105/1/1 106/2/1 95/3/1 94/4/1
f 106/1/1 107/2/1 96/3/1 95/4/1
f 107/1/1 108/2/1 97/3/1 96/4/1
f 108/1/1 109/2/1 98/3/1 97/4/1
f 109/1/1 110/2/1 99/3/1 98/4/1
f 111/1/1 112/2/1 101/3/1 100/4/1
f 112/1/1 113/2/1 102/3/1 101/4/1
f 113/1/1 114/2/1 103/3/1 102/4/1
f 114/1/1 115/2/1 104/3/1 103/4/1
f 115/1/1 116/2/1 105/3/1 104/4/1
f 116/1/1 117/2/1 106/3/1 105/4/1
f 117/1/1 118/2/1 107/3/1 106/4/1
f 118/1/1 119/2/1 108/3/1 107/4/1
f 119/1/1 120/2/1 109/3/1 108/4/1
f 120/1/1 121/2/1 110/3/1 109/4/1

g mesh_0002
f 36/5/1 37/6/1 26/7/1 25/8/1
f 40/5/1 41/6/1 30/7/1 29/8/1
f 42/9/1 43/10/1 32/11/1 31/12/1
f 59/9/1 60/10/1 49/11/1 48/12/1
f 63/9/1 64/10/1 53/11/1 52/12/1
f 84/9/1 85/10/1 74/11/1 73/12/1
f 102/9/1 103/10/1 92/11/1 91/12/1

g mesh_0003
f 1/13/1 2/14/1 3/15/1 4/16/1
f 2/13/1 5/14/1 6/15/1 3/16/1
f 5/13/1 7/14/1 8/15/1 6/16/1
f 7/13/1 9/14/1 10/15/1 8/16/1
f 9/13/1 11/14/1 12/15/1 10/16/1
f 11/13/1 13/14/1 14/15/1 12/16/1
f 13/13/1 15/14/1 16/15/1 14/16/1
f 15/13/1 17/14/1 18/15/1 16/16/1
f 17/13/1 19/14/1 20/15/1 18/16/1
f 19/13/1 21/14/1 22/15/1 20/16/1
f 23/17/1 24/18/1 2/19/1 1/20/1
f 24/21/1 25/22/1 5/23/1 2/24/1
f 25/21/1 26/22/1 7/23/1 5/24/1
f 26/21/1 27/22/1 9/23/1 7/24/1
f 27/13/1 28/14/1 11/15/1 9/16/1
f 28/21/1 29/22/1 13/23/1 11/24/1
f 29/21/1 30/22/1 15/23/1 13/24/1
f 30/21/1 31/22/1 17/23/1 15/24/1
f 31/21/1 32/22/1 19/23/1 17/24/1
f 32/25/1 33/26/1 21/27/1 19/28/1
f 34/17/1 35/18/1 24/19/1 23/20/1
f 43/25/1 44/26/1 33/27/1 32/28/1
f 45/17/1 46/18/1 35/19/1 34/20/1
f 54/25/1 55/26/1 44/27/1 43/28/1
f 56/17/1 57/18/1 46/19/1 45/20/1
f 65/25/1 66/26/1 55/27/1 54/28/1
f 67/17/1 68/18/1 57/19/1 56/20/1
f 76/25/1 77/26/1 66/27/1 65/28/1
f 78/17/1 79/18/1 68/19/1 67/20/1
f 87/25/1 88/26/1 77/27/1 76/28/1
f 89/17/1 90/18/1 79/19/1 78/20/1
f 98/25/1 99/26/1 88/27/1 87/28/1
f 100/17/1 101/18/1 90/19/1 89/20/1
f 109/25/1 110/26/1 99/27/1 98/28/1
f 111/29/1 112/30/1 101/31/1 100/32/1
f 112/33/1 113/34/1 102/35/1 101/36/1
f 113/33/1 114/34/1 103/35/1 102/36/1
f 114/33/1 115/34/1 104/35/1 103/36/1
f 115/33/1 116/34/1 105/35/1 104/36/1
f 116/33/1 117/34/1 106/35/1 105/36/1
f 117/33/1 118/34/1 107/35/1 106/36/1
f 118/33/1 119/34/1 108/35/1 107/36/1
f 119/33/1 120/34/1 109/35/1 108/36/1
f 120/37/1 121/38/1 110/39/1 109/40/1

g mesh_0004
f 1/41/1 2/42/1 3/43/1 4/44/1
f 2/41/1 5/42/1 6/43/1 3/44/1
f 5/41/1 7/42/1 8/43/1 6/44/1
f 7/41/1 9/42/1 10/43/1 8/44/1
f 11/41/1 13/42/1 14/43/1 12/44/1
f 13/41/1 15/42/1 16/43/1 14/44/1
f 15/41/1 17/42/1 18/43/1 16/44/1
f 17/41/1 19/42/1 20/43/1 18/44/1
f 19/41/1 21/42/1 22/43/1 20/44/1
f 23/41/1 24/42/1 2/43/1 1/44/1
f 32/41/1 33/42/1 21/43/1 19/44/1
f 34/41/1 35/42/1 24/43/1 23/44/1
f 36/41/1 37/42/1 26/43/1 25/44/1
f 40/41/1 41/42/1 30/43/1 29/44/1
f 43/41/1 44/42/1 33/43/1 32/44/1
f 45/41/1 46/42/1 35/43/1 34/44/1
f 54/41/1 55/42/1 44/43/1 43/44/1
f 56/41/1 57/42/1 46/43/1 45/44/1
f 65/41/1 66/42/1 55/43/1 54/44/1
f 67/41/1 68/42/1 57/43/1 56/44/1
f 76/41/1 77/42/1 66/43/1 65/44/1
f 78/41/1 79/42/1 68/43/1 67/44/1
f 87/41/1 88/42/1 77/43/1 76/44/1
f 89/41/1 90/42/1 79/43/1 78/44/1
f 98/41/1 99/42/1 88/43/1 87/44/1
f 100/41/1 101/42/1 90/43/1 89/44/1
f 109/41/1 110/42/1 99/43/1 98/44/1
f 111/41/1 112/42/1 101/43/1 100/44/1
f 112/41/1 113/42/1 102/43/1 101/44/1
f 113/41/1 114/42/1 103/43/1 102/44/1
f 114/41/1 115/42/1 104/43/1 103/44/1
f 115/41/1 116/42/1 105/43/1 104/44/1
f 116/41/1 117/42/1 106/43/1 105/44/1
f 117/41/1 118/42/1 107/43/1 106/44/1
f 118/41/1 119/42/1 108/43/1 107/44/1
f 119/41/1 120/42/1 109/43/1 108/44/1
f 120/41/1 121/42/1 110/43/1 109/44/1

