# Wavefront OBJ file automatically generated by Tiled2Unity

# Vertices (Count = 258)
v -4.48 -0.32 0
v -4.8 -0.32 0
v -4.8 0 0
v -4.48 0 0
v -5.12 -0.32 0
v -5.12 0 0
v -5.44 -0.32 0
v -5.44 0 0
v -5.76 -0.32 0
v -5.76 0 0
v -6.08 -0.32 0
v -6.08 0 0
v -6.4 -0.32 0
v -6.4 0 0
v -6.72 -0.32 0
v -6.72 0 0
v -7.04 -0.32 0
v -7.04 0 0
v -7.36 -0.32 0
v -7.36 0 0
v -4.48 -0.64 0
v -4.8 -0.64 0
v -5.12 -0.64 0
v -5.44 -0.64 0
v -5.76 -0.64 0
v -6.08 -0.64 0
v -6.4 -0.64 0
v -6.72 -0.64 0
v -7.04 -0.64 0
v -7.36 -0.64 0
v -4.48 -0.96 0
v -4.8 -0.96 0
v -5.12 -0.96 0
v -5.44 -0.96 0
v -5.76 -0.96 0
v -6.08 -0.96 0
v -6.4 -0.96 0
v -6.72 -0.96 0
v -7.04 -0.96 0
v -7.36 -0.96 0
v -4.48 -1.28 0
v -4.8 -1.28 0
v -5.12 -1.28 0
v -5.44 -1.28 0
v -5.76 -1.28 0
v -6.08 -1.28 0
v -6.4 -1.28 0
v -6.72 -1.28 0
v -7.04 -1.28 0
v -7.36 -1.28 0
v -4.48 -1.6 0
v -4.8 -1.6 0
v -5.12 -1.6 0
v -5.44 -1.6 0
v -5.76 -1.6 0
v -6.08 -1.6 0
v -6.4 -1.6 0
v -6.72 -1.6 0
v -7.04 -1.6 0
v -7.36 -1.6 0
v -4.48 -1.92 0
v -4.8 -1.92 0
v -5.12 -1.92 0
v -5.44 -1.92 0
v -5.76 -1.92 0
v -6.08 -1.92 0
v -6.4 -1.92 0
v -6.72 -1.92 0
v -7.04 -1.92 0
v -7.36 -1.92 0
v -4.48 -2.24 0
v -4.8 -2.24 0
v -5.12 -2.24 0
v -5.44 -2.24 0
v -5.76 -2.24 0
v -6.08 -2.24 0
v -6.4 -2.24 0
v -6.72 -2.24 0
v -7.04 -2.24 0
v -7.36 -2.24 0
v -0.96 -2.56 0
v -1.28 -2.56 0
v -1.28 -2.24 0
v -0.96 -2.24 0
v -1.6 -2.56 0
v -1.6 -2.24 0
v -1.92 -2.56 0
v -1.92 -2.24 0
v -2.24 -2.56 0
v -2.24 -2.24 0
v -2.56 -2.56 0
v -2.56 -2.24 0
v -2.88 -2.56 0
v -2.88 -2.24 0
v -3.2 -2.56 0
v -3.2 -2.24 0
v -3.52 -2.56 0
v -3.52 -2.24 0
v -3.84 -2.56 0
v -3.84 -2.24 0
v -4.16 -2.56 0
v -4.16 -2.24 0
v -4.48 -2.56 0
v -4.8 -2.56 0
v -5.12 -2.56 0
v -5.44 -2.56 0
v -5.76 -2.56 0
v -6.08 -2.56 0
v -6.4 -2.56 0
v -6.72 -2.56 0
v -7.04 -2.56 0
v -7.36 -2.56 0
v -0.96 -2.88 0
v -1.28 -2.88 0
v -1.6 -2.88 0
v -1.92 -2.88 0
v -2.24 -2.88 0
v -2.56 -2.88 0
v -2.88 -2.88 0
v -3.2 -2.88 0
v -3.52 -2.88 0
v -3.84 -2.88 0
v -4.16 -2.88 0
v -4.48 -2.88 0
v -4.8 -2.88 0
v -5.12 -2.88 0
v -5.44 -2.88 0
v -5.76 -2.88 0
v -6.08 -2.88 0
v -6.4 -2.88 0
v -6.72 -2.88 0
v -7.04 -2.88 0
v -7.36 -2.88 0
v -0.96 -3.2 0
v -1.28 -3.2 0
v -1.6 -3.2 0
v -1.92 -3.2 0
v -2.24 -3.2 0
v -2.56 -3.2 0
v -2.88 -3.2 0
v -3.2 -3.2 0
v -3.52 -3.2 0
v -3.84 -3.2 0
v -4.16 -3.2 0
v -4.48 -3.2 0
v -4.8 -3.2 0
v -5.12 -3.2 0
v -5.44 -3.2 0
v -5.76 -3.2 0
v -6.08 -3.2 0
v -6.4 -3.2 0
v -6.72 -3.2 0
v -7.04 -3.2 0
v -7.36 -3.2 0
v -0.96 -3.52 0
v -1.28 -3.52 0
v -1.6 -3.52 0
v -1.92 -3.52 0
v -2.24 -3.52 0
v -2.56 -3.52 0
v -2.88 -3.52 0
v -3.2 -3.52 0
v -3.52 -3.52 0
v -3.84 -3.52 0
v -4.16 -3.52 0
v -4.48 -3.52 0
v -4.8 -3.52 0
v -5.12 -3.52 0
v -5.44 -3.52 0
v -5.76 -3.52 0
v -6.08 -3.52 0
v -6.4 -3.52 0
v -6.72 -3.52 0
v -7.04 -3.52 0
v -7.36 -3.52 0
v -0.96 -3.84 0
v -1.28 -3.84 0
v -1.6 -3.84 0
v -1.92 -3.84 0
v -2.24 -3.84 0
v -2.56 -3.84 0
v -2.88 -3.84 0
v -3.2 -3.84 0
v -3.52 -3.84 0
v -3.84 -3.84 0
v -4.16 -3.84 0
v -4.48 -3.84 0
v -4.8 -3.84 0
v -5.12 -3.84 0
v -5.44 -3.84 0
v -5.76 -3.84 0
v -6.08 -3.84 0
v -0.96 -4.16 0
v -1.28 -4.16 0
v -1.6 -4.16 0
v -1.92 -4.16 0
v -2.24 -4.16 0
v -2.56 -4.16 0
v -2.88 -4.16 0
v -3.2 -4.16 0
v -3.52 -4.16 0
v -3.84 -4.16 0
v -4.16 -4.16 0
v -4.48 -4.16 0
v -4.8 -4.16 0
v -5.12 -4.16 0
v -5.44 -4.16 0
v -5.76 -4.16 0
v -6.08 -4.16 0
v -0.96 -4.48 0
v -1.28 -4.48 0
v -1.6 -4.48 0
v -1.92 -4.48 0
v -2.24 -4.48 0
v -2.56 -4.48 0
v -2.88 -4.48 0
v -3.2 -4.48 0
v -3.52 -4.48 0
v -3.84 -4.48 0
v -4.16 -4.48 0
v -4.48 -4.48 0
v -4.8 -4.48 0
v -5.12 -4.48 0
v -5.44 -4.48 0
v -5.76 -4.48 0
v -6.08 -4.48 0
v -0.96 -4.8 0
v -1.28 -4.8 0
v -1.6 -4.8 0
v -1.92 -4.8 0
v -2.24 -4.8 0
v -2.56 -4.8 0
v -2.88 -4.8 0
v -3.2 -4.8 0
v -3.52 -4.8 0
v -3.84 -4.8 0
v -4.16 -4.8 0
v -0.96 -5.12 0
v -1.28 -5.12 0
v -1.6 -5.12 0
v -1.92 -5.12 0
v -2.24 -5.12 0
v -2.56 -5.12 0
v -2.88 -5.12 0
v -3.2 -5.12 0
v -3.52 -5.12 0
v -3.84 -5.12 0
v -4.16 -5.12 0
v -1.92 -5.44 0
v -2.24 -5.44 0
v -2.56 -5.44 0
v -2.88 -5.44 0
v -3.2 -5.44 0
v -1.92 -5.76 0
v -2.24 -5.76 0
v -2.56 -5.76 0
v -2.88 -5.76 0
v -3.2 -5.76 0

# Texture cooridinates (Count = 52)
vt 0.9584554 0.2501221
vt 0.9998779 0.2501221
vt 0.9998779 0.3123779
vt 0.9584554 0.3123779
vt 0.7917888 0.3751221
vt 0.8332112 0.3751221
vt 0.8332112 0.4373779
vt 0.7917888 0.4373779
vt 0.9167888 0.2501221
vt 0.9582112 0.2501221
vt 0.9582112 0.3123779
vt 0.9167888 0.3123779
vt 0.8751221 0.2501221
vt 0.9165446 0.2501221
vt 0.9165446 0.3123779
vt 0.8751221 0.3123779
vt 0.3334554 0.5001221
vt 0.3748779 0.5001221
vt 0.3748779 0.5623779
vt 0.3334554 0.5623779
vt 0.7917888 0.2501221
vt 0.8332112 0.2501221
vt 0.8332112 0.3123779
vt 0.7917888 0.3123779
vt 0.8334554 0.3751221
vt 0.8748779 0.3751221
vt 0.8748779 0.4373779
vt 0.8334554 0.4373779
vt 0.7917888 0.3126221
vt 0.8332112 0.3126221
vt 0.8332112 0.3748779
vt 0.7917888 0.3748779
vt 0.8334554 0.3126221
vt 0.8748779 0.3126221
vt 0.8748779 0.3748779
vt 0.8334554 0.3748779
vt 0.9167888 0.3126221
vt 0.9582112 0.3126221
vt 0.9582112 0.3748779
vt 0.9167888 0.3748779
vt 0.9584554 0.3126221
vt 0.9998779 0.3126221
vt 0.9998779 0.3748779
vt 0.9584554 0.3748779
vt 0.8751221 0.3126221
vt 0.9165446 0.3126221
vt 0.9165446 0.3748779
vt 0.8751221 0.3748779
vt 0.0001220703 0.0001220703
vt 0.9998779 0.0001220703
vt 0.9998779 0.9998779
vt 0.0001220703 0.9998779

# Normal
vn 0 0 -1

# Groups (Count = 3)

g mesh_0001
f 1/1/1 2/2/1 3/3/1 4/4/1
f 2/5/1 5/6/1 6/7/1 3/8/1
f 5/5/1 7/6/1 8/7/1 6/8/1
f 7/5/1 9/6/1 10/7/1 8/8/1
f 9/5/1 11/6/1 12/7/1 10/8/1
f 11/5/1 13/6/1 14/7/1 12/8/1
f 13/5/1 15/6/1 16/7/1 14/8/1
f 15/5/1 17/6/1 18/7/1 16/8/1
f 17/9/1 19/10/1 20/11/1 18/12/1
f 21/13/1 22/14/1 2/15/1 1/16/1
f 22/17/1 23/18/1 5/19/1 2/20/1
f 23/17/1 24/18/1 7/19/1 5/20/1
f 24/17/1 25/18/1 9/19/1 7/20/1
f 25/17/1 26/18/1 11/19/1 9/20/1
f 26/17/1 27/18/1 13/19/1 11/20/1
f 27/17/1 28/18/1 15/19/1 13/20/1
f 28/17/1 29/18/1 17/19/1 15/20/1
f 29/21/1 30/22/1 19/23/1 17/24/1
f 31/13/1 32/14/1 22/15/1 21/16/1
f 32/17/1 33/18/1 23/19/1 22/20/1
f 33/17/1 34/18/1 24/19/1 23/20/1
f 34/17/1 35/18/1 25/19/1 24/20/1
f 35/17/1 36/18/1 26/19/1 25/20/1
f 36/17/1 37/18/1 27/19/1 26/20/1
f 37/17/1 38/18/1 28/19/1 27/20/1
f 38/17/1 39/18/1 29/19/1 28/20/1
f 39/21/1 40/22/1 30/23/1 29/24/1
f 41/13/1 42/14/1 32/15/1 31/16/1
f 42/17/1 43/18/1 33/19/1 32/20/1
f 43/17/1 44/18/1 34/19/1 33/20/1
f 44/17/1 45/18/1 35/19/1 34/20/1
f 45/17/1 46/18/1 36/19/1 35/20/1
f 46/17/1 47/18/1 37/19/1 36/20/1
f 47/17/1 48/18/1 38/19/1 37/20/1
f 48/17/1 49/18/1 39/19/1 38/20/1
f 49/21/1 50/22/1 40/23/1 39/24/1
f 51/13/1 52/14/1 42/15/1 41/16/1
f 52/17/1 53/18/1 43/19/1 42/20/1
f 53/17/1 54/18/1 44/19/1 43/20/1
f 54/17/1 55/18/1 45/19/1 44/20/1
f 55/17/1 56/18/1 46/19/1 45/20/1
f 56/17/1 57/18/1 47/19/1 46/20/1
f 57/17/1 58/18/1 48/19/1 47/20/1
f 58/17/1 59/18/1 49/19/1 48/20/1
f 59/21/1 60/22/1 50/23/1 49/24/1
f 61/13/1 62/14/1 52/15/1 51/16/1
f 62/17/1 63/18/1 53/19/1 52/20/1
f 63/17/1 64/18/1 54/19/1 53/20/1
f 64/17/1 65/18/1 55/19/1 54/20/1
f 65/17/1 66/18/1 56/19/1 55/20/1
f 66/17/1 67/18/1 57/19/1 56/20/1
f 67/17/1 68/18/1 58/19/1 57/20/1
f 68/17/1 69/18/1 59/19/1 58/20/1
f 69/21/1 70/22/1 60/23/1 59/24/1
f 71/13/1 72/14/1 62/15/1 61/16/1
f 72/17/1 73/18/1 63/19/1 62/20/1
f 73/17/1 74/18/1 64/19/1 63/20/1
f 74/17/1 75/18/1 65/19/1 64/20/1
f 75/17/1 76/18/1 66/19/1 65/20/1
f 76/17/1 77/18/1 67/19/1 66/20/1
f 77/17/1 78/18/1 68/19/1 67/20/1
f 78/17/1 79/18/1 69/19/1 68/20/1
f 79/21/1 80/22/1 70/23/1 69/24/1
f 81/1/1 82/2/1 83/3/1 84/4/1
f 82/5/1 85/6/1 86/7/1 83/8/1
f 85/5/1 87/6/1 88/7/1 86/8/1
f 87/5/1 89/6/1 90/7/1 88/8/1
f 89/5/1 91/6/1 92/7/1 90/8/1
f 91/5/1 93/6/1 94/7/1 92/8/1
f 93/5/1 95/6/1 96/7/1 94/8/1
f 95/5/1 97/6/1 98/7/1 96/8/1
f 97/5/1 99/6/1 100/7/1 98/8/1
f 99/9/1 101/10/1 102/11/1 100/12/1
f 103/13/1 104/14/1 72/15/1 71/16/1
f 104/17/1 105/18/1 73/19/1 72/20/1
f 105/17/1 106/18/1 74/19/1 73/20/1
f 106/17/1 107/18/1 75/19/1 74/20/1
f 107/17/1 108/18/1 76/19/1 75/20/1
f 108/17/1 109/18/1 77/19/1 76/20/1
f 109/17/1 110/18/1 78/19/1 77/20/1
f 110/17/1 111/18/1 79/19/1 78/20/1
f 111/21/1 112/22/1 80/23/1 79/24/1
f 113/13/1 114/14/1 82/15/1 81/16/1
f 114/17/1 115/18/1 85/19/1 82/20/1
f 115/17/1 116/18/1 87/19/1 85/20/1
f 116/17/1 117/18/1 89/19/1 87/20/1
f 117/17/1 118/18/1 91/19/1 89/20/1
f 118/17/1 119/18/1 93/19/1 91/20/1
f 119/17/1 120/18/1 95/19/1 93/20/1
f 120/17/1 121/18/1 97/19/1 95/20/1
f 121/17/1 122/18/1 99/19/1 97/20/1
f 122/21/1 123/22/1 101/23/1 99/24/1
f 124/13/1 125/14/1 104/15/1 103/16/1
f 125/17/1 126/18/1 105/19/1 104/20/1
f 126/17/1 127/18/1 106/19/1 105/20/1
f 127/17/1 128/18/1 107/19/1 106/20/1
f 128/17/1 129/18/1 108/19/1 107/20/1
f 129/17/1 130/18/1 109/19/1 108/20/1
f 130/17/1 131/18/1 110/19/1 109/20/1
f 131/17/1 132/18/1 111/19/1 110/20/1
f 132/21/1 133/22/1 112/23/1 111/24/1
f 134/13/1 135/14/1 114/15/1 113/16/1
f 135/17/1 136/18/1 115/19/1 114/20/1
f 136/17/1 137/18/1 116/19/1 115/20/1
f 137/17/1 138/18/1 117/19/1 116/20/1
f 138/17/1 139/18/1 118/19/1 117/20/1
f 139/17/1 140/18/1 119/19/1 118/20/1
f 140/17/1 141/18/1 120/19/1 119/20/1
f 141/17/1 142/18/1 121/19/1 120/20/1
f 142/17/1 143/18/1 122/19/1 121/20/1
f 143/5/1 144/6/1 123/7/1 122/8/1
f 144/5/1 145/6/1 124/7/1 123/8/1
f 145/25/1 146/26/1 125/27/1 124/28/1
f 146/17/1 147/18/1 126/19/1 125/20/1
f 147/17/1 148/18/1 127/19/1 126/20/1
f 148/17/1 149/18/1 128/19/1 127/20/1
f 149/17/1 150/18/1 129/19/1 128/20/1
f 150/17/1 151/18/1 130/19/1 129/20/1
f 151/17/1 152/18/1 131/19/1 130/20/1
f 152/17/1 153/18/1 132/19/1 131/20/1
f 153/21/1 154/22/1 133/23/1 132/24/1
f 155/13/1 156/14/1 135/15/1 134/16/1
f 156/17/1 157/18/1 136/19/1 135/20/1
f 157/17/1 158/18/1 137/19/1 136/20/1
f 158/17/1 159/18/1 138/19/1 137/20/1
f 159/17/1 160/18/1 139/19/1 138/20/1
f 160/17/1 161/18/1 140/19/1 139/20/1
f 161/17/1 162/18/1 141/19/1 140/20/1
f 162/17/1 163/18/1 142/19/1 141/20/1
f 163/17/1 164/18/1 143/19/1 142/20/1
f 164/17/1 165/18/1 144/19/1 143/20/1
f 165/17/1 166/18/1 145/19/1 144/20/1
f 166/17/1 167/18/1 146/19/1 145/20/1
f 167/17/1 168/18/1 147/19/1 146/20/1
f 168/17/1 169/18/1 148/19/1 147/20/1
f 169/17/1 170/18/1 149/19/1 148/20/1
f 170/29/1 171/30/1 150/31/1 149/32/1
f 171/33/1 172/34/1 151/35/1 150/36/1
f 172/33/1 173/34/1 152/35/1 151/36/1
f 173/33/1 174/34/1 153/35/1 152/36/1
f 174/37/1 175/38/1 154/39/1 153/40/1
f 176/13/1 177/14/1 156/15/1 155/16/1
f 177/17/1 178/18/1 157/19/1 156/20/1
f 178/17/1 179/18/1 158/19/1 157/20/1
f 179/17/1 180/18/1 159/19/1 158/20/1
f 180/17/1 181/18/1 160/19/1 159/20/1
f 181/17/1 182/18/1 161/19/1 160/20/1
f 182/17/1 183/18/1 162/19/1 161/20/1
f 183/17/1 184/18/1 163/19/1 162/20/1
f 184/17/1 185/18/1 164/19/1 163/20/1
f 185/17/1 186/18/1 165/19/1 164/20/1
f 186/17/1 187/18/1 166/19/1 165/20/1
f 187/17/1 188/18/1 167/19/1 166/20/1
f 188/17/1 189/18/1 168/19/1 167/20/1
f 189/17/1 190/18/1 169/19/1 168/20/1
f 190/17/1 191/18/1 170/19/1 169/20/1
f 191/21/1 192/22/1 171/23/1 170/24/1
f 193/13/1 194/14/1 177/15/1 176/16/1
f 194/17/1 195/18/1 178/19/1 177/20/1
f 195/17/1 196/18/1 179/19/1 178/20/1
f 196/17/1 197/18/1 180/19/1 179/20/1
f 197/17/1 198/18/1 181/19/1 180/20/1
f 198/17/1 199/18/1 182/19/1 181/20/1
f 199/17/1 200/18/1 183/19/1 182/20/1
f 200/17/1 201/18/1 184/19/1 183/20/1
f 201/17/1 202/18/1 185/19/1 184/20/1
f 202/17/1 203/18/1 186/19/1 185/20/1
f 203/17/1 204/18/1 187/19/1 186/20/1
f 204/17/1 205/18/1 188/19/1 187/20/1
f 205/17/1 206/18/1 189/19/1 188/20/1
f 206/17/1 207/18/1 190/19/1 189/20/1
f 207/17/1 208/18/1 191/19/1 190/20/1
f 208/21/1 209/22/1 192/23/1 191/24/1
f 210/13/1 211/14/1 194/15/1 193/16/1
f 211/17/1 212/18/1 195/19/1 194/20/1
f 212/17/1 213/18/1 196/19/1 195/20/1
f 213/17/1 214/18/1 197/19/1 196/20/1
f 214/17/1 215/18/1 198/19/1 197/20/1
f 215/17/1 216/18/1 199/19/1 198/20/1
f 216/17/1 217/18/1 200/19/1 199/20/1
f 217/17/1 218/18/1 201/19/1 200/20/1
f 218/17/1 219/18/1 202/19/1 201/20/1
f 219/29/1 220/30/1 203/31/1 202/32/1
f 220/33/1 221/34/1 204/35/1 203/36/1
f 221/33/1 222/34/1 205/35/1 204/36/1
f 222/33/1 223/34/1 206/35/1 205/36/1
f 223/33/1 224/34/1 207/35/1 206/36/1
f 224/33/1 225/34/1 208/35/1 207/36/1
f 225/37/1 226/38/1 209/39/1 208/40/1
f 227/13/1 228/14/1 211/15/1 210/16/1
f 228/17/1 229/18/1 212/19/1 211/20/1
f 229/17/1 230/18/1 213/19/1 212/20/1
f 230/17/1 231/18/1 214/19/1 213/20/1
f 231/17/1 232/18/1 215/19/1 214/20/1
f 232/17/1 233/18/1 216/19/1 215/20/1
f 233/17/1 234/18/1 217/19/1 216/20/1
f 234/17/1 235/18/1 218/19/1 217/20/1
f 235/17/1 236/18/1 219/19/1 218/20/1
f 236/21/1 237/22/1 220/23/1 219/24/1
f 238/41/1 239/42/1 228/43/1 227/44/1
f 239/33/1 240/34/1 229/35/1 228/36/1
f 240/33/1 241/34/1 230/35/1 229/36/1
f 241/45/1 242/46/1 231/47/1 230/48/1
f 242/17/1 243/18/1 232/19/1 231/20/1
f 243/17/1 244/18/1 233/19/1 232/20/1
f 244/29/1 245/30/1 234/31/1 233/32/1
f 245/33/1 246/34/1 235/35/1 234/36/1
f 246/33/1 247/34/1 236/35/1 235/36/1
f 247/37/1 248/38/1 237/39/1 236/40/1
f 249/13/1 250/14/1 242/15/1 241/16/1
f 250/17/1 251/18/1 243/19/1 242/20/1
f 251/17/1 252/18/1 244/19/1 243/20/1
f 252/21/1 253/22/1 245/23/1 244/24/1
f 254/13/1 255/14/1 250/15/1 249/16/1
f 255/17/1 256/18/1 251/19/1 250/20/1
f 256/17/1 257/18/1 252/19/1 251/20/1
f 257/21/1 258/22/1 253/23/1 252/24/1

g mesh_0002
f 1/49/1 2/50/1 3/51/1 4/52/1
f 2/49/1 5/50/1 6/51/1 3/52/1
f 5/49/1 7/50/1 8/51/1 6/52/1
f 7/49/1 9/50/1 10/51/1 8/52/1
f 9/49/1 11/50/1 12/51/1 10/52/1
f 11/49/1 13/50/1 14/51/1 12/52/1
f 13/49/1 15/50/1 16/51/1 14/52/1
f 15/49/1 17/50/1 18/51/1 16/52/1
f 17/49/1 19/50/1 20/51/1 18/52/1
f 21/49/1 22/50/1 2/51/1 1/52/1
f 29/49/1 30/50/1 19/51/1 17/52/1
f 31/49/1 32/50/1 22/51/1 21/52/1
f 39/49/1 40/50/1 30/51/1 29/52/1
f 41/49/1 42/50/1 32/51/1 31/52/1
f 49/49/1 50/50/1 40/51/1 39/52/1
f 51/49/1 52/50/1 42/51/1 41/52/1
f 59/49/1 60/50/1 50/51/1 49/52/1
f 61/49/1 62/50/1 52/51/1 51/52/1
f 69/49/1 70/50/1 60/51/1 59/52/1
f 71/49/1 72/50/1 62/51/1 61/52/1
f 79/49/1 80/50/1 70/51/1 69/52/1
f 81/49/1 82/50/1 83/51/1 84/52/1
f 82/49/1 85/50/1 86/51/1 83/52/1
f 85/49/1 87/50/1 88/51/1 86/52/1
f 87/49/1 89/50/1 90/51/1 88/52/1
f 89/49/1 91/50/1 92/51/1 90/52/1
f 91/49/1 93/50/1 94/51/1 92/52/1
f 93/49/1 95/50/1 96/51/1 94/52/1
f 95/49/1 97/50/1 98/51/1 96/52/1
f 97/49/1 99/50/1 100/51/1 98/52/1
f 99/49/1 101/50/1 102/51/1 100/52/1
f 103/49/1 104/50/1 72/51/1 71/52/1
f 111/49/1 112/50/1 80/51/1 79/52/1
f 113/49/1 114/50/1 82/51/1 81/52/1
f 122/49/1 123/50/1 101/51/1 99/52/1
f 124/49/1 125/50/1 104/51/1 103/52/1
f 132/49/1 133/50/1 112/51/1 111/52/1
f 134/49/1 135/50/1 114/51/1 113/52/1
f 143/49/1 144/50/1 123/51/1 122/52/1
f 144/49/1 145/50/1 124/51/1 123/52/1
f 145/49/1 146/50/1 125/51/1 124/52/1
f 153/49/1 154/50/1 133/51/1 132/52/1
f 155/49/1 156/50/1 135/51/1 134/52/1
f 170/49/1 171/50/1 150/51/1 149/52/1
f 171/49/1 172/50/1 151/51/1 150/52/1
f 172/49/1 173/50/1 152/51/1 151/52/1
f 173/49/1 174/50/1 153/51/1 152/52/1
f 174/49/1 175/50/1 154/51/1 153/52/1
f 176/49/1 177/50/1 156/51/1 155/52/1
f 191/49/1 192/50/1 171/51/1 170/52/1
f 193/49/1 194/50/1 177/51/1 176/52/1
f 208/49/1 209/50/1 192/51/1 191/52/1
f 210/49/1 211/50/1 194/51/1 193/52/1
f 219/49/1 220/50/1 203/51/1 202/52/1
f 220/49/1 221/50/1 204/51/1 203/52/1
f 221/49/1 222/50/1 205/51/1 204/52/1
f 222/49/1 223/50/1 206/51/1 205/52/1
f 223/49/1 224/50/1 207/51/1 206/52/1
f 224/49/1 225/50/1 208/51/1 207/52/1
f 225/49/1 226/50/1 209/51/1 208/52/1
f 227/49/1 228/50/1 211/51/1 210/52/1
f 236/49/1 237/50/1 220/51/1 219/52/1
f 238/49/1 239/50/1 228/51/1 227/52/1
f 239/49/1 240/50/1 229/51/1 228/52/1
f 240/49/1 241/50/1 230/51/1 229/52/1
f 241/49/1 242/50/1 231/51/1 230/52/1
f 244/49/1 245/50/1 234/51/1 233/52/1
f 245/49/1 246/50/1 235/51/1 234/52/1
f 246/49/1 247/50/1 236/51/1 235/52/1
f 247/49/1 248/50/1 237/51/1 236/52/1
f 249/49/1 250/50/1 242/51/1 241/52/1
f 252/49/1 253/50/1 245/51/1 244/52/1
f 254/49/1 255/50/1 250/51/1 249/52/1
f 257/49/1 258/50/1 253/51/1 252/52/1

